# xmcd
#
# Track frame offsets:
#	150
#	9537
#	22982
#	35012
#	46655
#	59697
#	72550
#	83812
#	93615
#	109325
#	120175
#	130690
#	145862
#	166092
#	176740
#	189995
#	205542
#	218760
#	230612
#	244715
#
# Disc length: 3408 seconds
#
# Revision: 0
# Processed by: cddbd v1.4PL0 Copyright (c) Steve Scherf et al.
# Submitted via: EasyCDDAExtractor 4.6.9.1
#
DISCID=0e0d4e14
DTITLE=Various Artist - Spirit of Soul
DYEAR=1996
DGENRE=Soul
TTITLE0=Al Jarreau - Ain't No Sunshine
TTITLE1=Aretha Franklin - (Yeild Not To) Temptation
TTITLE2=Ike and Tina Turner - (You're) So Fine
TTITLE3=Sam and Dave - You Dont Know Like I Know
TTITLE4=The Drifters - Wonderful World
TTITLE5=Bob and Earl - Harlem Shuffle
TTITLE6=Patti Labelle - Baby It's You
TTITLE7=The Isley Brothers - Nobody But Me
TTITLE8=Rufus Thomas - Sweet Soul Music
TTITLE9=Sam and Dave - Hold On, I'm Comin'
TTITLE10=Ben E King - I Who Have Nothing
TTITLE11=Billy Ocean - On The Run
TTITLE12=Billie Holliday - Stars Fell On Alabama
TTITLE13=Sam and Dave - Soul Sisters
TTITLE14=Ray Charles - Alone In The City
TTITLE15=Dinah Washington - Willow Weep For Me
TTITLE16=Percy Sledge - I've Been Loving You
TTITLE17=Eddie Floyd - Things Get Better
TTITLE18=Sarah Vaughan - The More I See You
TTITLE19=The Platters - Smoke Gets In Your Eyes
EXTD=
EXTT0=
EXTT1=
EXTT2=
EXTT3=
EXTT4=
EXTT5=
EXTT6=
EXTT7=
EXTT8=
EXTT9=
EXTT10=
EXTT11=
EXTT12=
EXTT13=
EXTT14=
EXTT15=
EXTT16=
EXTT17=
EXTT18=
EXTT19=
PLAYORDER=
